<svg xmlns="http://www.w3.org/2000/svg" width="60" height="60" viewBox="0 0 60 60">
    <g fill="none">
        <path fill="#646567" d="M27.138 59.983c-1.258-.247-2.516-.452-3.758-.75-10.967-2.642-18.279-9.366-22.19-19.926-.416-1.116-.076-2.08.323-3.05 1.42-3.41 3.614-6.308 6.07-9.01 1.208-1.329 2.517-2.573 3.903-3.715.859-.707 1.896-1.261 2.933-1.662 2.534-.989 4.421-.596 6.054 1.568 2.168 2.864 4.038 5.958 6.13 8.88 3.638 5.089 7.2 10.236 11.06 15.162 2.517 3.196 5.306 3.341 8.622.895 4.2-3.093 7.082-7.27 9.233-11.948 1.156-2.515 2.04-5.157 3.077-7.722.23-.58.57-1.108.85-1.662l.426.12c.042.912.144 1.823.127 2.735-.22 14.591-9.896 26.412-24.154 29.488-1.097.239-2.21.41-3.316.614l-5.39-.017z"/>
        <path fill="#008691" d="M.051 31.796c0-1.501-.126-3.01.017-4.495C1.304 14.717 9.82 4.482 21.775 1.107c13.998-3.951 28.903 2.951 34.999 16.248.243.525.31 1.322.1 1.848-2 5.122-5.086 9.514-9.121 13.212-1.295 1.187-2.825 1.992-4.658 2.145-1.883.153-3.236-.78-4.287-2.112-3.018-3.798-5.868-7.741-8.912-11.515-2.95-3.646-5.935-7.293-9.163-10.693-2.993-3.146-5.75-3.053-9.004-.119-3.842 3.452-6.373 7.793-8.13 12.61-.891 2.442-1.547 4.96-2.337 7.436-.193.594-.48 1.162-.723 1.739l-.488-.11z"/>
    </g>
</svg>
