<svg xmlns="http://www.w3.org/2000/svg" viewBox="0 0 211.2 280"><defs><style>.a,.e{fill:#ffe735;}.a,.b,.c,.d{fill-rule:evenodd;}.b{fill:#0071b7;}.c{fill:#007e5b;}.d{fill:#00853f;}</style></defs><title>Logo NGC (1)</title><polygon class="a" points="211.2 0 211.2 232.3 211 232.7 211 233.2 210.8 233.9 210.5 234.4 210.3 234.9 210 235.4 209.8 235.9 209.6 236.6 209.3 237.1 209.1 237.5 208.8 238 208.4 238.5 208.1 239 207.7 239.5 207.4 239.9 206.9 240.4 206.5 240.9 206 241.4 205.7 241.6 205.3 242.1 204.8 242.6 204.3 243.1 203.8 243.3 203.3 243.8 202.9 244 202.1 244.5 201.7 244.7 201.2 245.2 200.7 245.5 200 245.7 199.5 245.9 199 246.2 196.6 247.1 194.2 248.1 191.8 248.8 189.4 249.5 187 250.5 184.6 251 182 251.7 179.6 252.4 177.2 252.9 174.6 253.6 172.2 254.1 169.5 254.6 167.1 255.1 164.7 255.8 162.1 256.3 159.5 256.7 157.1 257.2 154.4 257.7 152 258.2 149.4 258.7 147 259.1 144.3 259.6 142 260.1 139.3 260.6 136.9 261.1 134.3 261.8 131.9 262.3 129.5 263 126.8 263.5 124.4 264.2 122 264.9 119.7 265.6 119.2 265.9 118.5 266.1 118 266.3 117.5 266.6 117 266.8 116.5 267.3 116.1 267.5 115.3 268 114.9 268.3 114.6 268.7 114.1 269 113.7 269.4 113.2 269.9 112.7 270.4 112.2 270.9 112 271.4 111.5 271.9 111.3 272.3 110.8 272.8 110.5 273.3 110.1 273.8 109.8 274.2 109.6 274.7 109.3 275.2 109.1 275.9 108.9 276.4 108.6 276.9 108.4 277.6 108.1 278.1 107.9 278.6 107.9 279.3 107.7 279.8 107.7 280 107.4 280 107.2 280 106.9 280 106.7 280 106.5 279.5 106.2 278.8 106 278.3 105.5 277.8 105.3 277.1 105 276.6 104.5 275.9 104.3 275.4 104.1 275 103.6 274.2 103.3 273.8 102.9 273.1 102.6 272.6 102.1 272.1 101.9 271.4 101.4 270.9 100.9 270.4 100.7 269.9 100.2 269.4 99.7 269 99.3 268.5 98.8 268 98.3 267.5 97.8 267.1 97.4 266.6 96.9 266.3 96.2 265.9 95.7 265.6 95.2 265.4 94.5 264.9 94 264.7 93.3 264.4 91.1 263.7 88.7 263 86.6 262.3 84.2 261.5 81.8 261.1 79.6 260.3 77.2 259.9 74.8 259.4 72.4 258.7 70 258.2 67.6 257.7 65.2 257.2 62.8 256.7 60.4 256.3 57.8 255.8 55.4 255.3 53 254.8 50.6 254.3 48.2 253.9 45.8 253.4 43.4 252.9 41 252.4 38.6 251.7 36.2 251.2 33.8 250.5 31.7 250 29.3 249.3 26.9 248.6 24.7 247.9 22.3 247.1 20.1 246.4 18 245.7 17 245.5 16.3 245.2 15.6 245 14.9 244.5 14.1 244.3 13.4 244 12.7 243.5 12 243.3 11.3 242.8 10.6 242.3 10.1 242.1 9.4 241.6 8.6 241.1 8.2 240.7 7.4 239.9 7 239.5 6.2 239 5.8 238.5 5 237.8 4.6 237.3 4.1 236.6 3.6 235.9 3.1 235.4 2.6 234.7 2.2 233.9 1.9 233.2 1.4 232.5 1.2 231.8 0.7 231.1 0.5 230.3 0.2 229.6 0 228.9 0 0 211.2 0 211.2 0"/><polygon class="b" points="61.1 4.1 56.3 47.5 56.3 47.7 56.3 48 56.3 48.2 56.6 48.2 56.6 48.5 56.8 48.5 56.8 48.7 56.8 48.9 57.1 48.9 57.1 49.2 57.3 49.2 57.3 49.4 57.5 49.7 57.8 49.9 58 50.1 58 50.4 58.3 50.4 58.3 50.6 58.5 50.6 58.5 50.9 58.7 51.1 59 51.1 59.2 51.1 59.5 51.1 59.7 51.1 59.7 50.9 59.9 50.9 59.9 50.6 59.9 50.4 60.2 50.4 60.2 50.1 60.2 49.9 60.2 49.7 60.2 49.4 60.2 49.2 60.2 48.9 60.4 48.9 60.4 48.7 65.9 4.1 205.7 3.8 203.8 6 103.3 122.1 8.2 232.7 7.9 232.7 7.7 232.7 7.4 232.7 7.4 232.5 7.2 232.5 7.2 232.3 7 232.3 7 232 6.7 231.8 6.7 231.5 6.5 231.3 6.5 231.1 6.5 230.8 6.2 230.8 4.6 227.2 4.3 139.6 4.3 115.4 4.3 55.2 4.3 4.1 61.1 4.1 61.1 4.1"/><polygon class="c" points="207.2 7.7 207.2 136.8 206.9 137 206.7 137.2 206.5 137.2 206.5 137 206.2 137 206 137 206 136.8 205.7 136.8 205.7 136.5 205.5 136.5 205.5 136.3 205 136 204.8 135.8 204.5 135.6 204.1 135.3 203.8 135.3 203.3 135.1 203.1 134.8 202.6 134.8 202.4 134.6 201.9 134.6 201.4 134.4 201.2 134.4 200.7 134.4 200.2 134.4 200 134.1 199.5 134.1 199 134.1 198.8 134.1 198.3 134.1 197.8 134.4 197.3 134.4 197.1 134.4 196.6 134.4 196.1 134.6 195.9 134.6 195.4 134.6 194.9 134.8 194.7 134.8 194.2 135.1 194 135.1 193.5 135.3 193.3 135.6 192.3 136.3 191.3 137.2 190.4 138.2 189.7 139.2 188.9 140.1 188.5 141.3 187.7 142.3 187.3 143.5 186.8 144.4 186.3 145.6 186.1 146.8 185.8 148 185.4 149.2 185.1 150.4 184.9 151.6 184.9 152.8 184.6 154 184.6 155.5 184.4 156.7 184.4 157.9 184.2 159.3 184.2 160.5 184.2 162 184.2 163.2 184.2 164.4 183.9 165.8 183.9 167 183.9 168.4 183.9 169.6 183.7 170.8 183.7 172.3 183.4 173.5 183.4 173.7 183.2 174.2 183.2 174.7 183.2 174.9 183.2 175.4 183 175.9 183 176.1 183 176.6 183 177.1 183 177.6 183 177.8 182.7 178.3 182.7 178.8 182.7 179.2 182.7 179.5 182.7 180 182.5 180.4 182.5 180.7 182.5 181.2 182.2 181.4 182.2 181.9 182 182.1 181.8 182.6 181.8 182.8 181.5 183.3 181.3 183.6 181 183.8 180.8 184 180.6 184.3 180.1 184.5 179.8 184.8 179.4 185 178.9 185 178.6 185 178.2 185 177.9 185 177.7 185 177.2 184.8 177 184.8 176.5 184.5 176.2 184.5 176 184.3 175.5 184 175.3 184 175 183.8 174.8 183.6 174.6 183.3 174.3 183.1 173.8 182.8 173.6 182.4 173.4 182.1 173.1 181.9 172.9 181.6 172.6 181.4 172.4 180.9 172.2 180.7 171.9 180.4 171.9 180.2 171.7 179.7 171.4 179.5 171.2 179.2 171 179 171 178.5 170.7 178.3 170.7 178 170.5 177.8 170.2 177.6 170.2 177.3 170 177.1 170 176.8 169.8 176.6 169.5 176.4 169.5 176.1 169.3 175.9 169.3 175.6 169 175.4 169 175.2 168.8 175.2 168.8 174.9 168.8 174.7 168.6 174.4 168.6 174.2 168.3 174 168.3 173.7 168.3 173.5 168.1 173.2 168.1 173 168.1 172.8 168.1 172.5 168.1 172.3 168.1 172 168.1 171.8 168.1 171.6 169.5 170.6 171 169.6 172.2 168.7 173.4 167.7 174.6 166.5 175.5 165.6 176.5 164.4 177.4 163.2 178.4 162 179.1 160.5 180.1 159.3 180.8 157.9 181.3 156.7 182 155.2 182.5 153.8 183 152.4 183.4 150.9 183.9 149.5 184.2 148 184.4 146.4 184.9 144.9 185.1 143.5 185.1 141.8 185.4 140.4 185.4 138.7 185.6 137 185.6 135.6 185.6 133.9 185.6 132.4 185.4 130.8 185.4 129.1 185.4 127.6 184.9 127.4 184.4 126.9 183.9 126.7 183.4 126.4 183.2 126.2 182.7 126 182.2 125.7 181.8 125.5 181.3 125.2 180.8 125 180.3 124.8 179.8 124.5 179.6 124.3 179.1 124 178.6 123.8 178.2 123.6 177.7 123.3 177.2 123.1 176.7 122.8 176.2 122.6 175.8 122.4 175.3 122.1 174.8 122.1 174.3 121.9 173.8 121.6 173.4 121.4 172.9 121.2 172.4 120.9 172.2 120.7 171.7 120.4 171.2 120 170.7 119.7 170.5 119.7 170 119.7 169.8 119.7 169.3 119.7 169 119.5 168.8 119.5 168.3 119.5 168.1 119.5 167.6 119.5 167.4 119.2 166.9 119.2 166.6 119.2 166.4 119 165.9 119 165.7 119 165.2 119 165 118.8 164.7 118.8 164.3 118.8 164 118.8 163.5 118.8 163.3 118.8 163.1 118.5 162.6 118.5 162.3 118.5 161.9 118.5 161.6 118.5 161.4 118.5 160.9 118.5 160.7 118.5 160.4 118.5 159.9 118.8 155.9 125 155.9 125.2 155.9 125.5 156.1 125.5 156.1 125.7 156.1 126 156.3 126 156.3 126.2 156.6 126.4 156.8 126.7 157.1 126.9 157.3 126.9 157.3 127.2 157.5 127.2 157.8 127.2 157.8 127.4 157.5 127.6 157.3 127.6 157.3 127.9 157.1 127.9 156.8 127.9 156.6 127.9 156.3 127.9 156.1 127.9 155.9 127.9 155.6 127.9 155.4 127.9 155.4 127.6 155.1 127.6 154.9 127.6 154.9 127.4 154.4 127.4 154.2 127.2 153.9 126.9 153.7 126.7 153.5 126.4 153.2 126.2 153 125.7 152.7 125.5 152.7 125.2 152.5 124.8 152.3 124.5 152.3 124 152 123.8 152 123.6 151.8 123.1 151.8 122.8 151.5 122.4 151.3 122.1 151.3 121.9 151.1 121.6 150.8 121.4 150.6 121.2 150.6 120.9 150.3 120.7 150.1 120.4 149.6 120.4 149.4 120.4 149.1 120.4 148.7 120.4 148.4 120.4 147.9 120.4 147.5 120.7 147.2 120.7 147 120.9 146.7 121.2 146.5 121.4 146.3 121.6 146 121.9 146 122.1 145.8 122.1 145.8 122.4 145.5 122.6 145.5 122.8 145.5 123.1 145.5 123.3 145.3 123.3 145.3 123.6 145.3 123.8 145.3 124 145.3 124.3 145.1 124.5 145.1 124.8 145.1 125 145.1 125.2 145.3 125.7 145.3 126 145.5 126.4 145.5 126.7 145.8 126.9 146 127.4 146 127.6 146.3 127.9 146.5 128.1 146.7 128.4 147 128.6 147.2 128.8 147.7 129.1 147.9 129.3 148.2 129.3 148.4 129.6 148.9 129.8 149.1 130 149.4 130 149.9 130.3 150.1 130.5 150.3 130.5 150.8 130.8 151.1 131 151.3 131.2 151.8 131.2 152 131.5 152.3 131.7 152.5 131.7 152.7 132 153.2 132.2 153 132.4 152.7 132.4 152.5 132.7 152.5 132.9 152.3 133.2 152.3 133.4 152.3 133.6 152.3 133.9 152.3 134.1 152.5 134.1 152.5 134.4 152.5 134.6 152.5 134.8 152.7 134.8 152.7 135.1 152.7 135.3 153 135.3 153 135.6 153 135.8 153.2 135.8 153.2 136 153.2 136.3 153.2 136.5 153.2 136.8 153.2 137 153.2 137.2 153 137.2 153 137.5 152.3 137.2 151.8 137.2 151.1 137.2 150.6 137.2 149.9 137.2 149.4 137.2 148.9 137.2 148.2 137.5 147.7 137.5 147.2 137.5 146.5 137.7 146 137.7 145.5 138 145.1 138.2 144.3 138.4 143.9 138.7 143.4 138.7 142.9 139.2 142.4 139.4 142 139.6 141.5 139.9 141 140.1 140.5 140.6 140 140.8 139.6 141.3 139.3 141.6 138.8 142 138.4 142.3 137.9 142.8 137.6 143.2 137.2 143.7 136.9 144 136.7 144.2 136.7 144.4 136.4 144.4 136.4 144.7 136.4 144.9 136.2 144.9 136.2 145.2 136.2 145.4 136 145.6 136 145.9 135.7 146.1 135.7 146.4 135.7 146.6 135.7 146.8 135.5 146.8 135.5 147.1 135.5 147.3 135.5 147.6 135.2 147.8 135.2 148 135.2 148.3 135.2 148.5 135.2 148.8 135.2 149 135.2 149.2 135 149.5 135 149.7 134.8 150 134.5 150.2 134.3 150.4 134 150.7 133.8 150.9 133.6 151.2 133.3 151.4 133.1 151.6 133.1 151.9 132.8 152.1 132.6 152.4 132.6 152.6 132.4 153.1 132.4 153.3 132.1 153.6 132.1 153.8 131.9 154.3 131.9 154.5 131.9 154.8 131.9 155.2 131.9 155.5 131.6 155.7 131.6 156.2 131.6 156.4 131.6 156.9 131.9 157.2 131.9 157.4 131.9 157.9 131.9 158.1 131.9 158.6 132.1 158.8 132.1 159.1 132.1 159.3 132.1 159.6 132.4 159.6 132.4 159.8 132.4 160 132.4 160.3 132.6 160.3 132.6 160.5 132.6 160.8 132.6 161 132.6 161.2 132.8 161.2 132.8 161.5 132.8 161.7 132.6 161.7 132.6 162 132.6 162.2 132.4 162.4 131.9 162.7 131.6 162.9 131.2 163.2 130.7 163.6 130.4 163.9 130 164.1 129.7 164.4 129.2 164.8 128.8 165.1 128.5 165.3 128 165.6 127.6 165.8 127.3 166.3 126.8 166.5 126.4 166.8 125.9 167 125.6 167.2 125.2 167.5 124.7 167.7 124.2 167.7 124 168 123.5 168 123 168.2 122.5 168.2 122 168.2 121.6 168.2 121.1 168.2 120.6 168.2 120.1 168 119.7 168 119.2 167.7 118.7 167.5 118.2 167.2 118 167 117.5 166.8 117.3 166.5 117 166.3 116.5 165.8 116.3 165.6 116.1 165.3 115.8 165.1 115.6 164.6 115.3 164.4 115.1 164.1 114.9 163.6 114.4 163.4 114.1 163.2 113.9 162.7 113.7 162.4 113.4 162.2 113.2 161.7 112.9 161.5 112.7 161.2 112.5 161 112.2 160.8 111.7 160.5 111.5 160.3 111.3 160 110.8 159.8 110.5 159.6 110.1 159.6 109.8 159.3 109.3 159.3 108.9 159.1 108.9 159.6 108.6 159.8 108.4 160 108.1 160.5 107.9 160.5 107.7 160.8 107.4 161 107.2 161 106.9 161.2 106.7 161.2 106.5 161.5 106.2 161.5 105.7 161.5 105.5 161.5 105.3 161.5 105 161.5 104.8 161.5 104.3 161.7 104.1 161.7 103.8 161.7 103.6 161.7 103.3 161.7 102.9 161.7 102.6 161.7 102.4 162 102.1 162 101.9 162.2 101.7 162.2 101.4 162.4 101.2 162.7 101.2 162.9 100.9 163.2 100.9 163.4 100.9 163.6 100.7 163.9 100.7 164.1 100.7 164.4 100.7 164.6 100.9 164.8 100.9 165.1 100.9 165.3 100.9 165.6 100.9 165.8 100.9 166 100.9 166.3 100.9 166.5 100.9 166.8 100.9 167 100.9 167.2 100.9 167.5 100.9 167.7 100.9 168 100.9 168.2 100.9 168.4 100.7 168.7 100.7 168.9 100.5 169.2 100.5 169.4 100.2 169.6 100 169.9 100 170.1 100 170.4 100.2 170.6 100.5 171.1 100.7 171.3 100.9 171.6 101.2 172 101.4 172.3 101.7 172.8 101.9 173 102.1 173.2 102.4 173.7 102.6 174 102.9 174.2 103.1 174.4 103.6 174.9 103.8 175.2 104.1 175.4 104.3 175.6 104.8 175.9 105 176.1 105.3 176.4 105.7 176.6 106 176.6 106.5 176.8 106.7 177.1 107.2 177.1 107.4 177.1 107.9 177.3 108.1 177.3 108.6 177.3 109.1 177.3 109.6 177.3 110.3 177.1 111 176.8 111.7 176.6 112.5 176.6 113.2 176.6 113.9 176.6 114.6 176.6 115.1 176.8 115.8 176.8 116.5 177.1 117.3 177.3 117.7 177.3 118.5 177.6 119.2 177.8 119.7 178 120.4 178.3 121.1 178.5 121.6 178.8 122.3 179 123 179.2 123.5 179.5 124.2 179.7 124.9 179.7 125.6 180 126.1 180 126.8 180 127.6 180 128.3 180 129 180 129.7 179.7 130.7 179.5 131.4 179.2 140 177.3 140.3 177.8 140.5 178.3 141 178.8 141.2 179.2 141.7 179.5 142 180 142.2 180.4 142.7 180.9 142.9 181.4 143.2 181.9 143.6 182.4 143.9 182.8 144.3 183.1 144.6 183.6 145.1 184 145.3 184.5 145.8 185 146 185.2 146.5 185.7 146.7 186.2 147.2 186.7 147.7 186.9 147.9 187.4 148.4 187.9 148.9 188.1 149.1 188.6 149.6 188.8 150.1 189.3 150.6 189.6 151.1 190 151.5 190.3 152 190.8 152.3 191 152.5 191.2 153 191.5 153.5 191.7 153.7 192.2 154.2 192.4 154.7 192.4 155.1 192.7 155.6 192.9 156.1 193.2 156.6 193.4 157.1 193.6 157.5 193.9 157.8 194.1 158.3 194.3 158.7 194.3 159.2 194.6 159.7 194.8 159.9 195.3 160.4 195.6 160.7 195.8 161.1 196 161.4 196.5 161.6 196.7 161.9 197.2 162.1 197.5 162.1 197.9 162.3 198.4 162.3 198.9 162.3 199.6 162.3 200.1 162.3 200.6 162.3 201.3 162.6 202 162.6 202.5 162.8 203.2 162.8 203.7 163.1 204.4 163.1 205.1 163.3 205.6 163.5 206.3 163.8 207.1 164 207.5 164.3 208.3 164.5 208.7 164.7 209.5 165 209.9 165.2 210.4 165.7 211.1 165.9 211.6 166.4 212.1 166.6 212.6 167.1 213.1 167.6 213.5 168.1 214 168.6 214.5 169 214.7 169.5 215.2 170 215.7 170.5 215.9 171.2 216.2 171.7 216.4 172.4 216.7 173.1 216.9 173.4 216.9 173.6 217.1 173.8 217.1 174.1 217.4 174.3 217.4 174.6 217.4 174.8 217.6 175 217.6 175.3 217.9 175.8 217.9 176 217.9 176.2 218.1 176.5 218.1 176.7 218.3 177 218.3 177.2 218.3 177.4 218.6 177.7 218.6 177.9 218.8 178.2 218.8 178.4 219.1 178.6 219.1 178.9 219.3 179.1 219.3 179.4 219.5 179.6 219.5 179.8 219.8 180.1 219.8 180.3 220 180.6 220 180.8 220.3 180.8 220.5 181.3 228.9 181 229.1 180.6 229.4 180.3 229.9 179.8 230.1 179.6 230.3 179.1 230.8 178.9 231.1 178.6 231.3 178.2 231.8 177.9 232 177.7 232.5 177.2 232.7 177 233.2 176.7 233.5 176.5 233.9 176.2 234.2 176 234.7 175.8 234.9 175.5 235.4 175.5 235.9 175.3 236.1 175 236.6 175 237.1 175 237.3 174.8 237.8 174.8 238.3 174.8 238.7 174.8 239.2 174.8 239.7 174.8 240.2 174.8 240.4 174.8 240.9 175 241.1 175 241.4 175 241.6 175.3 241.6 175.3 241.9 175.3 242.1 175.5 242.1 175.5 242.3 175.5 242.6 175.8 242.6 175.8 242.8 176 242.8 176 243.1 176.2 243.3 176.2 243.5 176.5 243.5 176.5 243.8 176.7 243.8 176.7 244 177 244 177 244.3 177.2 244.3 177.4 244.3 177.7 244.3 177.9 244 178.2 244 178.4 244 178.6 243.8 178.9 243.8 179.1 243.5 179.4 243.3 179.6 243.3 179.8 243.1 180.1 243.1 180.3 242.8 180.6 242.6 180.8 242.6 181 242.6 181.3 242.3 181.5 242.3 181.8 242.3 182 242.3 182.2 242.3 182.5 242.3 182.7 242.6 183 242.6 183.2 242.8 183.4 243.1 183.7 243.3 183.9 243.3 184.2 243.3 184.4 243.1 184.6 243.1 184.9 242.8 185.1 242.8 185.4 242.6 185.6 242.6 185.8 242.3 186.1 242.3 186.1 242.1 186.3 242.1 186.6 242.1 186.8 241.9 187 241.9 187.3 241.6 187.5 241.6 187.7 241.6 188 241.6 188.2 241.6 188.5 241.6 188.7 241.6 188.9 241.6 189.2 241.6 189.4 241.9 189.7 241.9 189.9 242.1 190.6 242.1 190.6 241.9 190.9 241.6 191.1 241.4 191.3 241.1 191.3 240.9 191.6 240.7 191.8 240.2 192.1 239.9 192.1 239.7 192.3 239.5 192.5 239.2 192.8 239 192.8 238.7 193 238.5 193.3 238 193.3 237.8 193.5 237.5 193.7 237.3 193.7 237.1 194 236.8 194.2 236.3 194.2 236.1 194.5 235.9 194.7 235.6 194.7 235.4 194.9 235.1 194.9 234.7 195.2 234.4 195.4 234.2 195.4 233.9 195.7 233.7 195.7 233.2 195.7 233 195.7 232.7 195.4 232.7 195.4 232.5 195.2 232.3 195.2 232 194.9 231.8 194.9 231.5 194.7 231.3 194.5 231.1 194.2 230.8 194.2 230.6 194 230.3 193.7 230.1 193.7 229.9 193.5 229.6 193.3 229.4 193.3 229.1 193.3 228.9 193 228.9 193 228.7 192.8 228.2 192.5 227.7 192.3 227 192.3 226.5 192.1 226 191.8 225.3 191.8 224.8 191.6 224.3 191.6 223.6 191.6 223.1 191.6 222.4 191.3 221.9 191.3 221.2 191.3 220.7 191.3 220.3 191.6 219.5 191.6 219.1 191.6 218.3 191.6 217.9 191.6 217.1 191.8 216.7 191.8 215.9 192.1 215.5 192.1 215 192.3 214.3 192.3 213.8 192.5 213.3 192.8 212.6 192.8 212.1 193 211.6 193.3 211.1 193.5 210.7 193 210.4 192.8 210.2 192.3 210.2 192.1 209.9 191.6 209.9 191.3 209.7 190.9 209.7 190.4 209.5 190.1 209.5 189.7 209.2 189.2 209.2 188.9 209.2 188.5 209 188 209 187.7 208.7 187.3 208.7 186.8 208.5 186.6 208.5 186.1 208.3 185.8 208.3 185.4 208 185.1 207.8 184.6 207.5 184.4 207.3 184.2 207.1 183.7 206.8 183.4 206.6 183.2 206.3 183 205.9 182.7 205.6 182.5 205.1 182.2 204.7 182.2 204.4 182.2 203.9 182 203.7 182 203.2 182 202.7 181.8 202.5 181.8 202 181.8 201.5 181.8 201.3 181.8 200.8 181.8 200.3 181.8 199.9 181.8 199.6 181.8 199.1 181.8 198.7 181.8 198.4 181.8 197.9 181.8 197.5 181.8 197 181.8 196.7 181.8 196.3 181.8 195.8 181.8 195.3 181.8 195.1 181.8 194.6 181.8 194.1 181.8 193.9 181.8 193.4 181.8 193.2 181.8 192.7 181.8 192.2 181.8 191.9 182 191.7 182.2 191.5 182.5 191.2 182.7 191.2 183 191 183.2 191 183.2 190.8 183.4 190.5 183.7 190.5 183.9 190.3 184.2 190 184.4 190 184.6 189.8 184.6 189.6 184.9 189.6 185.1 189.3 185.4 189.1 185.4 188.8 185.6 188.8 185.8 188.6 186.1 188.4 186.1 188.1 186.3 187.9 186.6 187.6 186.8 187.4 186.8 187.2 187 186.9 187 186.7 187 186.4 187.3 186.2 187.5 184.8 187.7 183.3 188.2 181.9 188.2 180.4 188.5 179 188.7 177.6 188.7 176.1 188.7 174.4 188.7 173 188.7 171.6 188.7 169.9 188.7 168.4 188.7 167 188.7 165.3 188.7 163.9 188.5 162.4 188.5 160.8 188.5 159.3 188.5 157.9 188.7 156.4 188.7 154.8 188.7 153.3 188.9 151.9 189.2 150.4 189.4 149 189.7 147.6 189.9 146.4 190.4 144.9 190.9 143.5 191.6 142.3 192.1 141.1 192.8 139.6 193 139.6 193 139.4 193.3 139.4 193.3 139.2 193.5 139.2 193.5 138.9 193.7 138.9 193.7 138.7 194 138.7 194.2 138.7 194.2 138.4 194.5 138.4 194.7 138.4 194.7 138.2 194.9 138.2 195.2 138.2 195.2 138 195.4 138 195.7 138 195.9 138 196.1 137.7 196.4 137.7 196.6 137.7 196.9 137.7 196.9 138 197.1 138 197.3 138 197.6 138 197.8 138 198.1 138.2 198.3 138.2 198.5 138.2 198.8 138.4 199 138.4 199.3 138.7 199.5 138.7 199.5 138.9 199.7 138.9 199.7 139.2 199.7 139.4 199.5 139.6 199.5 139.9 199.5 140.1 199.3 140.1 199.3 140.4 199 140.4 199 140.6 198.8 140.6 198.8 140.8 198.5 141.1 198.3 141.3 198.3 141.6 198.1 141.6 198.1 141.8 197.8 142 197.8 142.3 197.6 142.8 197.6 143.2 197.6 143.7 197.8 144.2 197.8 144.7 197.8 145.2 198.1 145.6 198.3 145.9 198.3 146.4 198.5 146.8 198.8 147.1 199 147.6 199.3 148 199.5 148.3 199.7 148.8 200 149 200.2 149.5 200.7 149.7 200.9 150.2 201.2 150.4 201.4 150.9 201.7 151.2 201.9 151.6 202.1 151.9 202.4 152.4 202.6 152.8 202.9 153.1 203.1 153.6 203.3 154 203.3 154.3 203.6 154.8 203.6 155.2 203.8 155.2 203.8 155.5 204.1 155.5 204.1 155.7 204.3 155.7 204.5 155.7 204.8 155.7 205 155.5 205 155.2 205.3 155.2 205.3 155 205.3 154.8 205.5 154.8 205.5 154.5 205.7 154.3 205.7 154 206 153.8 206 153.6 206.2 153.3 206.5 153.1 206.7 153.1 206.7 152.8 206.9 152.8 207.2 152.8 207.2 231.3 206.9 232 206.7 232.7 206.5 233.2 206.2 233.9 205.7 234.7 205.5 235.1 205 235.9 204.5 236.3 204.3 237.1 203.8 237.5 203.3 238 202.6 238.5 202.1 239 201.7 239.5 201.2 239.9 200.5 240.4 200 240.9 199.3 241.4 198.8 241.6 198.1 242.1 197.3 242.3 196.9 242.8 196.1 243.1 195.4 243.3 194.9 243.8 194.2 244 193.5 244.3 192.8 244.5 192.3 244.7 191.6 245 190.9 245.2 190.4 245.5 172.6 250 130.4 258.7 129.7 258.9 128.8 258.9 128 259.1 127.1 259.4 126.4 259.6 125.6 259.6 124.7 259.9 124 260.1 123 260.3 122.3 260.6 121.6 260.8 120.6 261.1 119.9 261.5 119.2 261.8 118.2 262 117.5 262.5 116.8 262.7 116.1 263.2 115.3 263.5 114.6 263.9 113.9 264.4 113.2 264.9 112.7 265.4 112 265.9 111.3 266.6 110.8 267.1 110.1 267.8 109.6 268.5 109.1 269 108.4 269.7 107.9 270.6 107.4 271.4 106.7 271.4 106.2 270.6 105.7 269.9 105.3 269.4 104.8 268.7 104.3 268 103.8 267.5 103.3 266.8 102.6 266.3 102.1 265.9 101.4 265.4 100.9 264.9 100.2 264.4 99.7 263.9 99 263.5 98.3 263 97.8 262.5 97.1 262 96.4 261.8 95.7 261.3 95 261.1 94.2 260.8 93.5 260.3 92.8 260.1 92.1 259.9 91.4 259.6 90.6 259.4 89.9 259.1 89.2 258.9 88.5 258.7 87.8 258.4 87 258.4 86.1 258.2 37.6 247.9 36.7 247.6 36 247.4 35 247.1 34 246.9 33.3 246.7 32.4 246.4 31.7 246.2 30.7 245.9 30 245.7 29 245.5 28.1 245.2 27.3 245 26.4 244.7 25.7 244.5 24.7 244 24 243.8 23 243.5 22.3 243.1 21.6 242.8 20.6 242.6 19.9 242.1 19.2 241.9 18.2 241.4 17.5 240.9 16.8 240.4 15.8 240.2 15.1 239.7 14.4 239.2 13.7 238.7 12.9 238.3 12.2 237.5 11.5 237.1 11.3 237.1 11.3 236.8 11.3 236.6 11 236.6 11 236.3 11 236.1 11 235.9 11.3 235.9 11.3 235.6 203.3 12.2 207.2 7.7 207.2 7.7"/><polygon class="a" points="97.8 25.9 97.8 29.8 98.1 30 98.3 30.2 98.5 30.5 98.8 30.7 99 31 99.3 31.2 99.5 31.4 99.7 31.7 99.7 31.9 100 32.2 100.2 32.4 100.5 32.6 100.7 32.9 100.9 33.1 101.2 33.4 101.2 33.6 101.4 33.8 101.7 34.1 101.7 34.3 101.9 34.6 101.9 34.8 102.1 35.3 102.1 35.5 102.4 35.8 102.4 36 102.4 36.5 102.4 36.7 102.6 37 102.6 37.4 102.6 37.7 102.6 38.1 102.4 38.4 101.7 39.1 101.2 39.1 100.9 39.1 100.5 38.9 100.2 38.9 99.7 38.9 99.5 38.6 99 38.6 98.5 38.6 98.3 38.6 97.8 38.4 97.4 38.4 97.1 38.4 96.6 38.1 96.4 38.1 95.9 38.1 95.7 37.9 95.2 37.9 95 37.7 94.5 37.4 94.2 37.4 93.8 37.2 93.5 37 93.3 36.7 92.8 36.5 92.6 36.2 92.3 36 92.1 35.8 91.8 35.5 91.6 35 91.4 34.8 91.4 34.3 91.1 33.8 90.9 33.8 90.6 33.8 90.4 33.8 90.4 34.1 90.2 34.1 90.2 34.3 89.9 34.3 89.9 34.6 90.2 34.8 90.2 35.3 90.4 35.8 90.6 36.2 90.6 36.5 90.9 36.7 91.1 37.2 91.6 37.4 91.8 37.7 92.1 37.9 92.3 38.1 92.8 38.4 93 38.6 93.3 38.9 93.8 38.9 94 39.1 94.5 39.4 95 39.4 95.2 39.6 95.7 39.6 95.9 39.8 96.4 39.8 96.9 39.8 97.1 40.1 97.6 40.1 98.1 40.3 98.3 40.3 98.8 40.3 99.3 40.5 99.5 40.5 100 40.5 100.2 40.8 100.5 40.8 100.5 41 100.5 41.3 100.7 41.3 100.7 41.5 100.7 41.7 100.7 42 100.5 42 100.5 42.2 100.2 42.2 100 42.2 99.7 42.5 99.7 42.7 99.5 42.7 99.3 42.9 99 42.9 98.8 43.2 98.3 43.2 98.1 43.2 97.8 43.2 97.6 43.2 97.4 43.2 97.1 43.2 96.9 43.2 96.6 43.2 96.2 43.2 95.9 43.2 95.7 43.2 95.4 43.2 95.2 43.2 95 43.2 94.5 42.9 94.2 42.9 94 42.9 93.8 42.9 93.5 42.9 93.3 42.9 93 42.7 92.6 42.7 92.3 42.7 92.1 42.7 91.8 42.7 91.1 42.5 90.4 42.2 89.4 42.2 88.7 42 88 42 87.3 42 86.3 42 85.6 42 84.9 42 84.2 42.2 83.4 42.5 82.7 42.5 82 42.7 81.3 42.9 80.6 43.2 79.8 43.4 79.1 43.9 78.6 44.1 77.9 44.4 77.2 44.9 76.5 45.1 75.8 45.6 75.1 45.8 74.6 46.3 73.9 46.5 73.1 47 72.4 47.3 71.9 47.7 71.2 48 70.5 48.5 69.8 48.7 69.3 49.2 69.1 49.2 68.8 49.4 68.8 49.7 68.6 49.9 68.6 50.1 68.3 50.4 68.3 50.6 68.3 50.9 68.3 51.1 68.3 51.3 68.3 51.6 68.6 51.8 68.6 52.1 68.6 52.3 68.6 52.5 68.6 52.8 68.6 53 68.6 53.3 68.6 53.5 68.6 53.7 68.6 54 68.6 54.5 68.3 54.7 68.3 55.2 68.3 55.4 68.1 55.9 68.1 56.1 68.1 56.6 67.9 56.9 67.9 57.3 67.6 57.6 67.6 58.1 67.4 58.3 67.4 58.5 67.1 59 67.1 59.3 66.9 59.7 66.7 60 66.7 60.2 66.4 60.7 66.2 60.9 65.9 61.2 65.9 61.7 65.7 61.9 65.5 62.1 65.2 62.4 65 62.6 64.7 63.1 64.3 63.3 64 63.6 63.8 63.8 63.5 64.1 63.1 64.3 62.6 64.1 62.3 62.9 62.1 61.9 62.1 60.7 61.9 59.7 61.9 58.5 61.9 57.6 61.9 56.4 61.9 55.4 61.9 54.2 61.9 53.3 61.9 52.1 62.1 51.1 62.1 49.9 62.3 48.9 62.3 47.7 62.6 46.8 62.8 45.6 62.8 44.6 63.1 43.4 63.3 42.5 63.5 41.3 63.5 40.3 63.8 39.1 64 38.1 64 37 64.3 36 64.5 34.8 64.5 33.8 64.7 32.6 64.7 31.7 64.7 30.5 65 29.5 66.4 14.4 66.4 14.2 66.7 14.2 66.7 13.9 66.9 13.7 67.1 13.4 67.4 13.4 67.4 13.2 67.6 13.2 67.9 13.2 68.1 13.2 68.1 13 68.3 13 68.6 13 68.8 13 69.1 13 69.3 13 69.5 13 69.8 13 70 13 70.3 13 70.5 13 70.7 13 71 13 71.2 12.7 71.5 12.7 71.7 12.7 71.9 12.7 72.2 12.5 73.1 12.5 74.1 12.5 75.1 12.7 76 12.7 77 12.7 77.9 13 78.9 13 79.8 13.2 80.8 13.4 81.8 13.7 82.7 13.9 83.7 14.2 84.6 14.4 85.6 14.6 86.6 15.1 87.3 15.4 88.2 15.8 89 16.3 89.9 16.6 90.6 17.3 91.4 17.8 92.3 18.2 93 18.7 93.5 19.4 94.2 20.2 95 20.9 95.4 21.6 96.2 22.3 96.6 23 97.1 24 97.6 25 97.8 25.9 97.8 25.9"/><polygon class="a" points="58 15.4 57.8 16.3 57.8 17.3 57.5 18.2 57.5 19.2 57.3 20.2 57.3 21.1 57.1 22.1 57.1 23 57.1 24 56.8 25 56.8 25.9 56.6 26.9 56.6 27.8 56.6 28.8 56.3 29.8 56.3 30.7 56.3 31.7 56.1 32.6 56.1 33.4 56.1 34.3 55.9 35.3 55.9 36.2 55.6 37.2 55.6 38.1 55.4 39.1 55.4 40.1 55.1 41 55.1 42 54.9 42.9 54.9 43.9 54.7 44.6 54.4 45.6 54 46.1 53.7 45.8 53.5 45.8 53.2 45.6 53 45.6 52.8 45.3 52.5 45.3 52.3 45.1 52 45.1 51.8 44.9 51.6 44.9 51.3 44.6 51.1 44.6 50.8 44.4 50.6 44.4 50.1 44.1 49.9 44.1 49.6 43.9 49.4 43.9 49.2 43.7 48.9 43.7 48.7 43.4 48.4 43.4 48.2 43.2 48 43.2 47.7 43.2 47.5 42.9 47.2 42.9 47 42.7 46.8 42.7 46.5 42.7 46 42.5 45.8 42.5 45.8 42.7 45.6 42.7 45.6 42.9 45.3 42.9 45.3 43.2 45.1 43.2 45.1 43.4 45.1 43.7 45.3 43.9 45.6 44.1 46 44.4 46.5 44.6 47 44.9 47.7 45.1 48.2 45.3 48.7 45.6 49.4 46.1 49.9 46.3 50.4 46.5 50.8 47 51.3 47.3 52 47.7 52.5 48.2 53 48.5 53.5 48.9 54 49.4 54.4 49.9 54.9 50.4 55.4 50.9 55.6 51.3 56.1 51.8 56.6 52.3 56.8 52.8 57.3 53.3 57.5 53.7 58 54.2 58.3 54.7 58.5 55.4 59 55.9 59.2 56.4 59.5 56.9 59.5 57.6 59.7 57.8 59.7 58.1 59.7 58.5 59.7 58.8 59.9 59 59.9 59.5 59.9 59.7 59.9 60 59.9 60.5 59.9 60.7 59.9 60.9 59.9 61.4 59.9 61.7 59.9 61.9 59.9 62.4 59.9 62.6 59.9 62.9 59.7 63.1 59.7 63.6 59.7 63.8 59.7 64.1 59.5 64.3 59.5 64.8 59.5 65 59.2 65.3 59.2 65.5 59 65.7 58.7 66 58.7 66.2 58.5 66.5 58.3 66.7 58.3 66.9 58 66.9 57.8 66.7 57.5 66.7 57.3 66.5 57.1 66.5 56.8 66.2 56.6 66.2 56.3 66 56.1 65.7 55.9 65.7 55.6 65.5 55.4 65.3 55.1 65.3 54.9 65 54.7 64.8 54.4 64.5 54.2 64.5 54 64.3 53.7 64.1 53.5 64.1 53.2 63.8 53 63.6 52.8 63.6 52.5 63.6 52.3 63.3 52 63.3 51.3 63.1 50.6 62.9 50.1 62.6 49.4 62.4 48.7 62.4 48 62.1 47.2 62.1 46.5 62.1 46 62.1 45.3 62.4 44.6 62.4 43.9 62.6 43.4 62.6 42.7 62.9 42 63.1 41.5 63.3 40.8 63.6 40.3 63.8 39.6 64.3 39.1 64.5 38.4 64.8 37.9 65.3 37.2 65.7 36.7 66 36 66.5 35.5 66.9 35 67.4 34.5 67.9 33.8 68.1 33.3 68.6 32.9 69.1 32.4 69.6 31.2 70.8 30.2 72.2 29.3 73.4 28.3 74.6 27.6 76.1 26.9 77.5 26.1 78.9 25.4 80.4 24.9 81.8 24.5 83.3 24 84.7 23.5 86.1 23.3 87.8 22.8 89.3 22.5 90.9 22.3 92.4 22.3 94.1 22.1 95.7 21.8 97.4 21.8 98.9 21.8 100.5 21.8 102.2 21.8 103.9 21.8 105.6 21.8 107 22.1 108.7 22.1 110.4 22.1 112.1 22.3 113.5 22.5 115.2 22.5 116.6 22.8 118.3 22.8 118.5 23 118.5 23 118.8 23 119 23.3 119 23.3 119.2 23.5 119.5 23.5 119.7 23.7 119.7 23.7 120 24 120 24 120.2 24.2 120.2 25.2 119.7 25.2 118 24.9 116.4 24.7 114.5 24.5 112.5 24.5 110.9 24.2 108.9 24.2 107 24.2 105.1 24 103.4 24 101.5 24.2 99.6 24.2 97.7 24.2 96 24.5 94.1 24.7 92.4 24.9 90.5 25.4 88.8 25.7 86.9 26.1 85.2 26.9 83.5 27.3 81.8 28.1 80.1 28.8 78.7 29.7 77 30.7 75.6 31.7 74.1 32.9 72.7 34 71.5 35.2 70.1 36.7 68.9 38.4 67.7 40 66.7 40.3 66.5 40.5 66.5 40.8 66.2 41 66.2 41.2 66 41.5 66 41.7 65.7 42 65.7 42.2 65.5 42.4 65.5 42.7 65.3 42.9 65.3 43.2 65.3 43.4 65 43.6 65 43.6 64.8 43.9 64.8 44.1 64.8 44.4 64.8 44.6 64.5 44.8 64.5 45.1 64.5 45.3 64.5 45.6 64.5 45.8 64.3 46 64.3 46.3 64.3 46.5 64.3 46.8 64.3 47.2 65 46 66.5 44.8 67.7 43.6 69.1 42.7 70.5 41.5 72 40.5 73.4 39.6 74.9 38.6 76.3 37.6 78 36.9 79.4 36 80.9 35.2 82.5 34.5 84 33.6 85.7 33.1 87.1 32.4 88.8 31.7 90.5 31.2 91.9 30.5 93.6 30 95.3 29.5 96.9 29 98.6 28.8 100.3 28.3 102 28.1 103.7 27.8 105.6 27.3 107.3 27.3 108.9 27.1 110.9 26.9 112.5 26.9 114.5 26.6 116.4 26.6 116.6 26.6 116.8 26.6 117.1 26.6 117.3 26.9 117.3 26.9 117.6 26.9 117.8 26.9 118 27.1 118 27.1 118.3 27.1 118.5 27.3 118.5 27.3 118.8 27.3 119 27.6 119.2 27.6 119.5 27.8 119.5 27.8 119.7 27.8 120 27.8 120.2 28.1 120.2 28.1 120.4 28.1 120.7 28.8 120.9 29.5 121.2 30 121.4 30.7 121.6 31.4 121.9 32.1 122.4 32.6 122.6 33.3 122.8 34 123.3 34.5 123.8 35.2 124 35.7 124.5 36.4 125 36.9 125.5 37.4 126 38.1 126.4 38.6 127.2 39.1 127.6 39.6 128.1 40 128.8 40.5 129.3 40.8 130 41.2 130.5 41.7 131.2 42 131.7 42.4 132.4 42.7 133.2 42.9 133.6 43.2 134.4 43.4 135.1 43.6 135.8 43.6 136.5 43.9 136.8 44.1 137 44.1 137.2 44.4 137.5 44.4 137.7 44.6 138 44.6 138.2 44.6 138.7 44.8 138.9 44.8 139.2 44.8 139.4 45.1 139.9 45.1 140.1 45.1 140.4 45.1 140.8 45.1 141.1 45.3 141.3 45.3 141.8 45.3 142 45.3 142.3 45.3 142.8 45.3 143 45.3 143.2 45.3 143.7 45.3 144 45.3 144.2 45.3 144.7 45.3 144.9 45.3 145.2 45.3 145.6 45.3 145.9 45.3 146.1 44.8 146.6 39.3 142.3 39.1 142.3 38.6 142 38.1 142 37.9 142 37.4 142 36.9 142 36.4 141.8 36 141.8 35.7 141.8 35.2 141.8 34.8 141.8 34.3 141.6 34 141.6 33.6 141.6 33.1 141.3 32.6 141.3 32.4 141.3 31.9 141.1 31.4 140.8 31.2 140.8 30.7 140.6 30.5 140.4 30 140.1 29.7 140.1 29.5 139.6 29 139.4 28.8 139.2 28.5 138.9 28.3 138.4 28.1 138.2 27.8 137.7 27.6 137.2 27.3 137 27.1 137 26.9 137 26.6 137 26.4 137 26.1 137.2 25.9 137.5 25.7 137.7 25.7 138 25.7 138.2 25.4 138.4 25.4 138.7 25.2 138.9 25.2 139.2 24.9 139.2 24.9 139.4 24.9 139.6 24.7 139.6 24.7 139.9 24.5 139.9 24.5 140.1 24 140.6 23.5 141.1 23.3 141.6 22.8 141.8 22.3 142.3 21.8 142.5 21.3 143 20.9 143.2 20.4 143.5 19.7 143.7 19.2 144 18.7 144.2 18.2 144.4 17.5 144.7 17 144.9 16.5 145.2 16.1 145.2 15.6 145.4 15.1 145.6 14.6 146.1 14.1 146.4 13.7 146.6 13.2 146.8 12.7 147.3 12.5 147.6 12 148 11.7 148.5 11.5 149 11.3 149.5 11 150.2 10.8 150.7 10.8 151.4 9.8 151.4 9.4 150.7 9.1 149.7 8.9 148.8 8.6 147.8 8.4 146.8 8.4 146.1 8.2 145.2 8.2 144.2 8.2 143.2 8.2 142.3 8.4 141.6 8.4 140.6 8.6 139.6 8.6 138.9 8.9 138 9.1 137 9.6 136.3 9.8 135.3 10.1 134.6 10.6 133.6 10.8 132.9 11.3 132 11.7 131.2 12.2 130.5 12.7 129.6 13.2 128.8 13.7 128.1 14.1 127.4 14.9 126.7 15.3 126 15.8 125.2 16.5 124.5 19.9 121.6 19.2 119.5 18.5 117.3 18 115.2 17.3 113 16.8 110.6 16.3 108.5 15.8 106.1 15.6 103.7 15.1 101.3 14.9 99.1 14.6 96.7 14.6 94.1 14.4 91.7 14.4 89.3 14.4 86.9 14.4 84.5 14.6 82.1 14.6 79.7 14.9 77.3 15.1 74.9 15.3 72.5 15.8 70.1 16.1 67.7 16.5 65.3 17 63.1 17.7 60.7 18.2 58.5 18.9 56.1 19.4 54 20.1 51.8 21.1 49.9 21.8 47.7 21.8 47.5 22.1 47.5 22.1 47.3 22.1 47 22.3 47 22.3 46.8 22.5 46.5 22.5 46.3 22.8 46.3 22.8 46.1 22.8 45.8 23 45.8 23 45.6 23.3 45.3 23.3 45.1 23.5 44.9 23.5 44.6 23.7 44.4 23.7 44.1 24 43.9 24 43.7 24 43.4 24.2 43.2 24.2 42.9 24.2 42.7 24.5 42.5 24.2 42.5 24 42.2 23.7 42.2 23.5 42.2 23.3 42.2 23 42.2 22.8 42.2 22.5 42.2 22.3 42.2 22.1 42.2 21.8 42.2 21.6 42.2 21.3 42.5 21.1 42.5 20.9 42.5 20.6 42.7 20.4 42.7 20.1 42.7 19.9 42.7 19.7 42.9 19.4 42.9 19.2 42.9 18.9 42.9 18.7 43.2 18.5 43.2 18.2 43.2 18 43.2 17.7 43.4 17.5 43.4 17.3 43.4 17 43.4 17 43.2 16.8 43.2 16.8 42.9 16.8 42.7 16.8 42.5 16.5 42.2 16.5 42 16.5 41.7 16.8 41.7 16.8 41.5 16.8 41.3 16.8 41 16.8 40.8 17 40.5 17 40.3 17 40.1 17.3 39.8 17.3 39.6 17.5 39.4 17.5 39.1 17.5 38.9 17.7 38.6 17.7 38.4 17.7 38.1 18 37.9 18.2 37 18.7 36 18.9 35 19.4 34.1 19.9 33.4 20.6 32.6 21.1 31.7 21.8 31 22.5 30.2 23.3 29.8 24 29 24.7 28.6 25.4 28.1 26.1 27.4 27.1 26.9 27.8 26.4 28.8 26.2 29.7 25.7 30.5 25.2 31.4 25 32.4 24.5 33.3 24.2 34.3 24 35.2 23.8 36.2 23.5 37.2 23 38.1 22.8 39.1 22.8 40 22.6 41 22.3 42 22.1 42.7 21.8 43.2 21.6 43.6 21.4 44.1 21.1 44.4 20.9 44.8 20.6 45.3 20.2 45.8 19.9 46 19.7 46.5 19.4 47 19.2 47.5 19 48 18.7 48.2 18.5 48.7 18.5 49.2 18.2 49.6 18 50.1 17.8 50.6 17.5 50.8 17.3 51.3 17 51.8 16.8 52.3 16.6 52.8 16.6 53.2 16.3 53.7 16.1 54.2 15.8 54.4 15.6 54.9 15.4 55.4 15.4 55.9 15.1 56.3 14.9 56.8 14.6 57.1 14.6 57.3 14.6 57.3 14.9 57.5 14.9 57.8 14.9 57.8 15.1 58 15.1 58 15.4 58 15.4"/><polygon class="b" points="91.4 27.1 91.4 27.4 91.4 27.6 91.4 27.8 91.4 28.1 91.4 28.3 91.1 28.6 91.1 28.8 91.1 29 90.9 29 90.9 29.3 90.6 29.3 90.6 29.5 90.4 29.5 90.2 29.8 89.9 29.8 89.7 29.8 89.4 29.8 89.2 29.8 89.2 29.5 89 29.5 88.7 29.5 88.5 29.5 88.2 29.3 88 29.3 88 29 87.8 29 87.5 28.8 87.5 28.6 87.5 28.3 87.3 28.3 87.3 28.1 87.3 27.8 87.3 27.6 87.3 27.4 87.3 27.1 87.5 26.9 87.5 26.6 87.8 26.6 87.8 26.4 88 26.4 88 26.2 88.2 26.2 88.2 25.9 88.5 25.9 88.7 25.9 89 25.7 89.2 25.7 89.4 25.7 89.7 25.9 89.9 25.9 90.2 25.9 90.2 26.2 90.4 26.2 90.6 26.4 90.9 26.4 90.9 26.6 91.1 26.6 91.1 26.9 91.4 26.9 91.4 27.1 91.4 27.1"/><polygon class="a" points="49.4 132 49.6 132.2 50.1 132.4 50.4 132.7 50.6 132.9 51.1 133.2 51.3 133.4 51.8 133.6 52 133.6 52.5 133.9 52.8 134.1 53.2 134.1 53.7 134.4 54 134.4 54.4 134.6 54.9 134.6 55.1 134.8 55.6 134.8 56.1 134.8 56.6 135.1 56.8 135.1 57.3 135.1 57.8 135.1 58.3 135.3 58.5 135.3 59 135.3 59.5 135.3 59.9 135.6 60.2 135.6 60.7 135.6 61.1 135.6 61.6 135.6 61.9 135.8 69.8 136.8 70 137 70.3 137.2 70.3 137.5 70.5 137.7 70.5 138 70.5 138.2 70.5 138.4 70.5 138.7 70.3 138.9 70.3 139.2 69.5 139.6 69.1 139.6 68.8 139.6 68.3 139.6 68.1 139.6 67.6 139.6 67.4 139.6 66.9 139.4 66.7 139.4 66.2 139.4 65.9 139.4 65.5 139.4 65.2 139.4 64.7 139.2 64.5 139.2 64 139.2 63.8 139.2 63.3 139.2 63.1 138.9 62.6 138.9 62.3 138.9 61.9 138.9 61.6 138.9 61.1 138.7 60.9 138.7 60.4 138.7 60.2 138.7 59.7 138.4 59.5 138.4 59 138.4 58.7 138.4 58.3 138.2 58 138.2 57.8 138.2 57.8 138.4 57.5 138.4 57.5 138.7 57.5 138.9 57.5 139.2 57.5 139.4 69.1 142 69.1 142.3 69.3 142.3 69.5 142.5 69.8 142.8 69.8 143 69.8 143.2 69.8 143.5 69.8 143.7 69.5 143.7 69.5 144 69.5 144.2 69.3 144.2 69.3 144.4 69.1 144.7 69.1 144.9 68.8 144.9 68.8 145.2 68.6 145.4 68.3 145.6 68.1 145.9 67.9 146.1 67.6 146.4 67.1 146.4 66.9 146.6 66.7 146.6 66.4 146.6 65.9 146.8 65.7 146.8 65.5 146.8 65 146.8 64.7 146.8 64.3 146.8 64 146.8 63.8 146.8 63.3 146.8 63.1 146.6 62.6 146.6 62.3 146.6 61.9 146.6 61.6 146.6 61.1 146.6 60.9 146.4 60.7 146.4 60.2 146.4 59.9 146.4 59.5 146.4 59.2 146.4 59 146.4 58.5 146.4 58.3 146.4 58 146.1 57.5 146.1 57.3 146.1 56.8 145.9 56.6 145.9 56.1 145.6 55.9 145.6 55.4 145.6 55.1 145.4 54.7 145.4 54.4 145.4 54 145.2 53.7 145.2 53.2 144.9 53 144.9 52.5 144.7 52.3 144.7 52 144.4 51.6 144.4 51.3 144.2 51.1 144 50.8 143.7 50.6 143.5 50.4 143.2 50.1 143 49.9 142.5 49.6 142.3 49.6 142 49.4 141.6 49.2 141.1 49.2 140.6 49.2 140.4 49.2 140.1 49.2 139.9 48.9 139.6 48.9 139.4 48.7 139.2 48.7 138.9 48.4 138.7 48.4 138.4 48.2 138.4 48.2 138.2 48 138.2 48 138 48 137.7 47.7 137.7 47.7 137.5 47.5 137.5 47.5 137.2 47.2 137 47 136.8 47 136.5 46.8 136.5 46.8 136.3 46.5 136.3 46.5 136 46.3 135.8 46.8 130.5 54.2 69.6 55.1 68.9 56.6 70.8 49.4 132 49.4 132"/><polygon class="a" points="136.7 116.6 136.9 116.6 136.9 116.8 137.2 117.1 137.4 117.3 137.4 117.6 137.6 117.8 137.6 118 137.6 118.3 137.6 118.5 137.6 118.8 137.6 119 137.6 119.2 137.6 119.5 137.6 119.7 137.6 120 137.6 120.2 137.6 120.4 137.6 120.7 137.4 120.9 137.4 121.2 137.4 121.4 137.4 121.6 137.4 121.9 137.4 122.1 137.2 122.4 137.2 122.6 137.2 122.8 137.2 123.3 136.9 123.6 136.9 124 136.7 124.3 136.7 124.8 136.4 125 136.2 125.5 136.2 125.7 136 126.2 135.7 126.4 135.5 126.9 135.5 127.2 135.2 127.4 135 127.9 134.8 128.1 134.8 128.6 134.5 128.8 134.3 129.3 134.3 129.6 134 129.8 134 130.3 134 130.5 134 131 134 131.2 134 131.7 134 132 134 132.4 134.3 132.7 134.3 133.2 134.5 133.4 134.8 133.9 134.8 134.1 135 134.4 135 134.6 135 134.8 135.2 135.1 135.5 135.3 135.5 135.6 135.7 135.8 135.7 136 136 136.3 136 136.5 136.2 136.8 136.4 137 136.4 137.2 136.7 137.5 136.7 137.7 136.7 138 136.9 138.2 136.9 138.4 137.2 138.7 137.2 138.9 137.4 138.9 137.4 139.2 137.4 139.4 137.6 139.6 137.6 139.9 137.6 140.1 137.6 140.4 137.6 140.6 137.6 140.8 137.6 141.1 137.4 141.3 137.2 141.8 136.7 142 136.4 142.3 136.2 142.5 136 143 135.7 143.2 135.5 143.5 135.2 143.7 135 144 134.8 144.2 134.8 144.4 134.5 144.7 134.5 144.9 134.3 145.2 134.3 145.4 134 145.6 134 145.9 133.8 146.1 133.8 146.4 133.8 146.6 133.8 146.8 133.8 147.1 133.6 147.3 133.6 147.6 133.6 147.8 133.6 148 133.6 148.3 133.6 148.5 133.6 148.8 133.6 149 133.8 149.2 133.6 149.2 133.3 149.2 133.1 149.5 132.8 149.5 132.6 149.7 132.4 150 132.1 150 132.1 150.2 131.9 150.2 131.9 150.4 131.6 150.4 131.6 150.7 131.4 150.9 131.2 151.2 131.2 151.4 130.9 151.4 130.9 151.6 130.7 151.9 130.7 152.1 130.4 152.1 130.4 152.4 130.2 152.6 130.2 152.8 130.2 153.1 130 153.3 130 153.6 129.7 153.8 129.7 154 129.5 153.6 129.2 153.1 129 152.6 129 151.9 128.8 151.4 128.5 150.9 128.3 150.2 128.3 149.7 128 149 127.8 148.5 127.8 148 127.6 147.3 127.3 146.8 127.1 146.1 127.1 145.6 126.8 144.9 126.8 144.4 126.6 143.7 126.4 143.2 126.4 142.5 126.1 142 126.1 141.3 125.9 140.6 125.9 140.1 125.9 139.4 125.6 138.9 125.6 138.2 125.6 137.7 125.6 137 125.4 136.5 125.4 135.8 125.4 135.3 120.4 129.8 120.4 129.6 120.4 129.3 120.4 129.1 120.4 128.8 120.6 128.8 120.6 128.6 120.6 128.4 120.8 128.1 120.8 127.9 121.1 127.9 121.1 127.6 121.3 127.6 121.3 127.4 121.3 127.2 121.6 127.2 121.6 126.9 121.8 126.7 121.8 126.4 122 126.4 122 126.2 122 126 122 125.7 122 125.5 122 125.2 122 125 122 124.8 121.8 124.8 121.8 124.5 121.8 124.3 121.8 124 121.8 123.8 121.8 123.6 121.8 123.3 121.6 123.1 121.6 122.8 121.6 122.6 121.6 122.4 121.6 122.1 121.6 121.9 121.6 121.6 121.6 121.4 121.6 121.2 121.8 120.9 121.8 120.7 122 120.4 122 120.2 122.3 120.2 122.3 120 122.5 119.7 122.8 119.7 123.2 119.7 123.5 119.5 123.7 119.2 124 119 124.2 119 124.4 118.8 124.7 118.3 124.9 118 124.9 117.8 125.2 117.6 125.4 117.3 125.6 117.1 125.6 116.6 125.9 116.4 126.1 116.1 126.1 115.9 126.4 115.7 126.6 115.4 126.8 115.2 127.1 114.9 127.3 114.9 127.3 114.7 127.6 114.7 128 114.5 128.3 114.5 128.5 114.5 128.8 114.5 129 114.7 129.5 114.7 129.7 114.9 130.2 115.2 130.4 115.4 130.7 115.4 130.9 115.7 131.2 115.7 131.4 115.7 131.6 115.9 131.9 115.9 132.1 115.9 132.4 115.9 132.6 115.9 132.8 115.9 133.1 116.1 133.3 116.1 133.6 116.1 133.8 116.1 134 116.1 134.3 116.1 134.5 116.1 134.8 116.1 135 116.1 135.2 116.1 135.5 116.1 135.7 116.1 136 116.4 136.2 116.4 136.4 116.4 136.7 116.6 136.7 116.6"/><polygon class="c" points="154.4 128.8 154.7 128.8 154.9 129.1 155.1 129.1 155.4 129.1 155.6 129.1 155.9 129.3 156.1 129.3 156.3 129.3 156.6 129.3 156.8 129.3 157.1 129.3 157.3 129.3 157.5 129.3 157.8 129.3 158 129.3 158 129.1 158.3 129.1 158.5 128.8 158.5 129.1 158.5 129.3 158.5 129.6 158.5 129.8 158.3 129.8 158.3 130 158 130 158 130.3 157.8 130.3 157.5 130.5 157.3 130.5 157.1 130.5 156.8 130.5 156.6 130.5 156.3 130.5 156.1 130.5 155.9 130.5 155.6 130.5 155.4 130.5 155.1 130.3 154.9 130.3 154.7 130.3 154.4 130.3 154.2 130.3 153.9 130 153.7 130 153.5 130 153.2 130 153 129.8 152.7 129.8 152.5 129.8 152.3 129.6 152 129.6 152 129.3 151.8 129.3 151.5 129.3 151.3 129.1 151.1 129.1 150.8 128.8 150.6 128.6 150.3 128.6 150.1 128.4 149.9 128.4 149.9 128.1 149.6 128.1 149.4 127.9 149.4 127.6 149.1 127.6 148.9 127.4 148.7 127.4 148.7 127.2 148.4 126.9 148.4 126.7 148.2 126.7 147.9 126.4 147.9 126.2 147.7 126.2 147.7 126 147.7 125.7 147.5 125.5 147.5 125.2 147.5 125 147.5 124.8 147.5 124.5 147.5 124.3 147.5 124 147.5 123.8 147.5 123.6 147.5 123.3 147.7 123.1 147.7 122.8 147.9 122.6 147.9 122.4 148.2 122.4 148.4 122.1 148.7 122.1 148.9 122.1 149.1 122.4 149.4 122.6 149.4 122.8 149.6 123.1 149.9 123.1 149.9 123.3 150.1 123.6 150.3 123.8 150.3 124 150.6 124.3 150.6 124.5 150.8 124.8 150.8 125 151.1 125.2 151.1 125.5 151.3 125.7 151.5 126 151.5 126.2 151.8 126.4 151.8 126.7 152 126.9 152.3 127.2 152.5 127.4 152.5 127.6 152.7 127.9 153 128.1 153.2 128.1 153.5 128.4 153.7 128.6 153.9 128.6 154.4 128.8 154.4 128.8"/><polygon class="c" points="175.5 127.9 175.5 128.4 166.9 128.8 166.9 128.6 166.9 128.4 166.9 128.1 166.9 127.9 166.9 127.6 166.9 127.4 166.9 127.2 167.1 127.2 167.1 126.9 167.1 126.7 167.1 126.4 167.4 126.4 167.4 126.2 167.6 126 167.6 125.7 167.6 125.5 167.8 125.5 167.8 125.2 168.1 125.2 168.1 125 168.3 124.8 168.6 124.8 168.6 124.5 168.8 124.5 169 124.8 169.3 124.8 169.5 124.8 169.8 125 170 125 170.2 125 170.5 125.2 170.7 125.2 171 125.5 171.2 125.5 171.4 125.5 171.7 125.7 171.9 125.7 171.9 126 172.2 126 172.4 126.2 172.6 126.2 172.9 126.4 173.1 126.4 173.4 126.7 173.6 126.7 173.8 126.9 174.1 126.9 174.1 127.2 174.3 127.2 174.6 127.4 174.8 127.4 175 127.6 175.3 127.6 175.5 127.9 175.5 127.9"/><polygon class="d" points="157.5 131.5 157.5 131.7 157.5 132 157.3 132 157.3 132.2 157.1 132.2 157.1 132.4 156.3 131.7 156.6 131.7 156.6 131.5 156.8 131.5 156.8 131.2 157.1 131.2 157.3 131.2 157.5 131.2 157.5 131.5 157.5 131.5"/><polygon class="a" points="146.7 189.6 147.2 189.8 147.5 190 147.9 190.5 148.2 190.8 148.7 191 148.9 191.2 149.4 191.5 149.6 191.7 150.1 191.9 150.6 192.2 150.8 192.4 151.3 192.7 151.5 192.9 152 193.2 152.5 193.4 152.7 193.6 153.2 193.9 153.5 194.1 153.9 194.3 154.4 194.6 154.7 194.8 155.1 195.1 155.4 195.3 155.9 195.6 156.3 195.8 156.6 195.8 157.1 196 157.3 196.3 157.8 196.5 158.3 196.7 158.5 197 159 197.2 159.2 197.2 159.2 197.5 159.5 197.5 159.5 197.7 159.7 197.7 159.7 197.9 159.9 198.2 159.9 198.4 160.2 198.4 160.2 198.7 160.2 198.9 160.2 199.1 160.4 199.4 160.4 199.6 160.4 199.9 160.4 200.1 160.4 200.3 160.4 200.6 160.4 200.8 160.2 201.1 160.2 201.3 159.9 201.5 159.7 201.5 159.7 201.8 159.5 201.8 159.2 201.8 159 202 158.7 202 158.5 202 158.5 202.3 158.3 202.3 158 202.5 157.8 202.5 157.8 202.7 157.5 202.7 157.3 203 157.1 203 157.1 203.2 156.8 203.5 156.8 203.7 156.8 203.9 156.6 203.9 156.6 204.2 156.6 204.7 156.8 204.9 156.8 205.4 156.8 205.6 157.1 206.1 157.1 206.3 157.3 206.8 157.3 207.1 157.5 207.5 157.5 207.8 157.5 208.3 157.8 208.5 157.8 209 158 209.2 158 209.7 158.3 209.9 158.5 210.4 158.5 210.7 158.7 211.1 158.7 211.4 159 211.9 159 212.1 159.2 212.3 159.5 212.8 159.5 213.1 159.7 213.5 159.7 213.8 159.9 214.3 160.2 214.5 160.2 215 160.4 215.2 160.4 215.5 160.4 216.4 159.7 216.4 159 216.7 158.5 216.9 157.8 216.9 157.3 217.1 156.6 217.4 155.9 217.6 155.4 217.6 154.7 217.9 154.2 218.1 153.5 218.3 153 218.6 152.3 218.8 151.8 219.1 151.1 219.3 150.6 219.5 149.9 219.8 149.4 220 148.9 220.3 148.2 220.7 147.7 221 147 221.2 146.5 221.5 146 221.9 145.3 222.2 144.8 222.7 144.3 222.9 143.6 223.1 143.2 223.6 142.7 224.1 142.2 224.3 141.5 224.8 141.2 224.8 141 224.6 140.8 224.6 140.5 224.6 140.3 224.3 140 224.1 139.8 223.9 139.6 223.9 139.6 223.6 139.3 223.4 139.1 223.4 139.1 223.1 138.8 222.9 138.6 222.7 138.4 222.7 138.4 222.4 138.1 222.2 137.9 222.2 137.6 221.9 137.4 221.9 137.2 221.7 136.9 221.7 136.7 221.7 136.4 221.7 136.2 221.9 136 221.9 135.7 221.9 135.5 222.2 135.2 222.4 135 222.4 134.8 222.4 134.8 222.7 134.5 222.7 134.3 222.7 134 222.9 133.8 222.9 133.6 222.9 133.3 223.1 133.1 223.1 132.8 223.4 132.6 223.4 132.4 223.4 132.1 223.6 131.9 223.6 131.6 223.6 131.4 223.6 131.2 223.6 130.9 223.6 130.7 223.6 130.7 223.4 130.4 223.4 130.2 223.1 130.4 222.9 130.4 222.4 130.4 222.2 130.7 221.9 130.7 221.7 130.7 221.5 130.7 221.2 130.4 221 130.4 220.7 130.2 220.5 130.2 220.3 130 220 130 219.8 129.7 219.8 129.5 219.5 129.2 219.3 129 219.1 128.8 218.8 128.5 218.8 128.3 218.6 128.3 218.3 128 218.1 127.8 218.1 127.8 217.9 127.6 217.6 127.6 217.4 127.6 217.1 127.3 216.9 127.6 216.7 127.6 216.4 127.6 216.2 127.8 215.9 128 215.7 128 215.5 128.3 215.5 128.3 215.2 128.5 215 128.5 214.7 128.5 214.5 128.8 214.5 128.8 214.3 128.8 214 128.5 213.8 128.5 213.5 128.3 213.3 128.3 213.1 128 212.8 127.8 212.6 127.6 212.3 127.3 212.1 127.1 211.9 126.8 211.6 126.8 211.4 126.6 211.4 126.6 211.1 126.4 211.1 126.4 210.9 126.1 210.7 126.1 210.4 125.9 210.2 125.9 209.9 125.9 209.7 126.1 209.5 126.1 209.2 126.4 209 126.8 208.7 127.1 208.5 127.6 208.3 127.8 208.3 128.3 208 128.5 208 129 207.8 129.5 207.8 129.7 207.8 130.2 207.8 130.7 207.8 130.9 207.8 131.4 207.8 131.9 207.8 132.4 207.8 132.6 207.8 133.1 208 133.6 208 133.8 208 134.3 208.3 134.8 208.3 135 208.5 135.5 208.5 136 208.7 136.2 208.7 136.7 209 136.9 209 137.4 209.2 137.6 209.5 138.1 209.5 138.4 209.7 138.6 209.7 138.8 209.5 139.1 209.5 139.3 209.5 139.6 209.2 139.8 209.2 140 209.2 140.3 209 140.5 209 140.8 209 141 209 141.2 208.7 141.5 208.7 141.7 208.5 142 208.5 142.2 208.5 142.4 208.3 142.7 208.3 142.9 208 143.2 208 143.4 207.8 143.6 207.8 143.6 207.5 143.9 207.5 144.1 207.3 144.3 207.3 144.3 207.1 144.6 206.8 144.6 206.3 144.3 205.9 144.1 205.4 143.9 204.9 143.6 204.4 143.4 203.9 143.2 203.5 142.7 203 142.4 202.5 142.2 202 142.2 201.5 142 201.1 141.7 200.6 141.5 200.1 141.2 199.6 141 199.1 141 198.7 140.8 198.2 140.8 197.7 140.8 197.2 140.5 196.7 140.5 196.3 140.5 195.6 140.8 195.1 140.8 194.6 140.8 194.1 141 193.6 141.2 193.2 141.5 192.7 141.7 192.2 142 191.7 142.4 191.2 142.7 191 142.9 190.8 143.2 190.5 143.2 190.3 143.4 190.3 143.4 190 143.6 190 143.9 189.8 144.1 189.6 144.3 189.6 144.3 189.3 144.6 189.3 144.8 189.3 145.1 189.1 145.3 189.1 145.5 189.1 145.8 189.1 146 189.1 146.3 189.1 146.3 189.3 146.5 189.3 146.7 189.3 146.7 189.6 146.7 189.6"/><path class="e" d="M353.4,393.9c1.9-.2,2.8-0.4,2.8-2.6V376.2c-1.8-2.2-2.3-2.3-2.7-2.3v-0.8h6.8l11.1,13.7h0.1v-9.7c0-1.9-.4-3-3-3.2v-0.8h6.9v0.8c-2.3.3-2.5,1-2.5,2.6v18.8h-0.9L357.6,378h-0.1v12.8c0,2.3.7,2.9,3,3.2v0.8h-7.3v-0.8Z" transform="translate(-315.3 -157.6)"/><path class="e" d="M400.1,386.4c-2,.2-2.8.3-2.8,2.9v4.1c-1.5,1.1-5.9,2-8.6,2-8,0-11.6-5.7-11.6-11.2s4.4-11.5,11.3-11.5c2.9,0,5.3,1.6,6.2,1.6s1.2-.7,1.5-1.5H397v7.5h-0.8c-1.1-2.8-3.8-6.5-7.5-6.5s-5.9,4.9-5.9,10.4c0,2.3.2,10.2,6.2,10.2,2.8,0,3.3-1,3.3-2.3v-3.4c0-2-1-2.1-3.2-2.2v-0.8h11v0.8Z" transform="translate(-315.3 -157.6)"/><path class="e" d="M422.8,390.7c-2.3,2.7-4.8,4.7-8.9,4.7-7.5,0-11.5-5.2-11.5-11.2s4.6-11.5,11.3-11.5c2.9,0,5.3,1.6,6.2,1.6s1.2-.7,1.5-1.5h0.9v7.5h-0.8c-1.1-2.8-3.8-6.5-7.5-6.5s-5.9,4.9-5.9,10.3c0,1.9.2,5,1.4,7a5.9,5.9,0,0,0,4.9,2.8c2.5,0,4.9-1,7.6-3.9Z" transform="translate(-315.3 -157.6)"/></svg>